<?xml version="1.0" standalone="no"?>
<!DOCTYPE svg PUBLIC "-//W3C//DTD SVG 20010904//EN"
 "http://www.w3.org/TR/2001/REC-SVG-20010904/DTD/svg10.dtd">
<svg version="1.0" xmlns="http://www.w3.org/2000/svg"
 width="20pt" height="20pt" viewBox="0 0 512.000000 512.000000"
 preserveAspectRatio="xMidYMid meet">

<g transform="translate(0.000000,512.000000) scale(0.100000,-0.100000)"
fill="#727478" stroke="none">
<path d="M1107 4260 c-151 -38 -251 -163 -251 -315 0 -88 33 -165 99 -229 65
-63 138 -89 235 -84 86 5 143 30 203 87 90 84 121 226 77 343 -52 140 -223
233 -363 198z"/>
<path d="M2484 4256 c-93 -23 -175 -92 -216 -181 -35 -76 -33 -191 5 -267 30
-62 83 -115 149 -150 36 -19 58 -23 138 -23 80 0 102 4 138 23 66 35 119 88
149 150 38 76 40 191 5 267 -43 93 -130 163 -230 184 -63 13 -72 13 -138 -3z"/>
<path d="M3869 4256 c-145 -39 -239 -160 -239 -309 0 -82 25 -149 79 -209 62
-69 127 -100 221 -106 60 -3 86 0 132 18 165 62 249 263 177 420 -48 103 -112
158 -216 185 -67 18 -92 18 -154 1z"/>
<path d="M1085 2867 c-66 -22 -99 -43 -142 -90 -52 -56 -68 -87 -83 -159 -28
-140 50 -288 185 -350 76 -35 191 -33 267 5 62 30 115 83 150 149 19 36 23 58
23 138 0 106 -15 147 -81 220 -73 80 -218 120 -319 87z"/>
<path d="M2485 2871 c-92 -24 -173 -90 -215 -176 -34 -69 -35 -198 -2 -265 34
-71 75 -114 144 -151 58 -31 70 -34 148 -33 72 0 93 4 136 26 75 40 107 70
145 140 31 58 34 70 34 148 0 78 -3 90 -34 148 -57 104 -144 160 -260 167 -36
2 -79 1 -96 -4z"/>
<path d="M3842 2862 c-66 -24 -118 -65 -159 -126 -43 -63 -56 -116 -51 -201 8
-116 71 -211 176 -262 48 -24 69 -28 137 -28 105 1 167 27 234 101 114 125
114 303 0 428 -85 94 -221 129 -337 88z"/>
<path d="M1057 1470 c-75 -29 -132 -82 -169 -157 -27 -56 -32 -77 -32 -137 1
-284 342 -428 541 -229 66 66 88 123 88 228 0 78 -4 97 -27 141 -36 68 -113
136 -178 157 -68 22 -162 21 -223 -3z"/>
<path d="M2464 1480 c-50 -16 -125 -71 -161 -118 -154 -204 -1 -506 257 -506
121 0 242 78 291 186 35 80 34 193 -4 270 -31 62 -84 116 -149 149 -48 25
-180 36 -234 19z"/>
<path d="M3830 1472 c-64 -24 -160 -122 -183 -187 -68 -195 59 -401 264 -430
90 -13 213 35 274 107 113 133 104 322 -20 442 -82 80 -224 109 -335 68z"/>
</g>
</svg>
