<?xml version="1.0" standalone="no"?>
<!DOCTYPE svg PUBLIC "-//W3C//DTD SVG 20010904//EN"
 "http://www.w3.org/TR/2001/REC-SVG-20010904/DTD/svg10.dtd">
<svg version="1.0" xmlns="http://www.w3.org/2000/svg"
 width="14pt" height="14pt" viewBox="0 0 512.000000 512.000000"
 preserveAspectRatio="xMidYMid meet">

<g transform="translate(0.000000,512.000000) scale(0.100000,-0.100000)"
fill="#727478" stroke="none">
<path d="M383 3999 c-172 -22 -322 -159 -368 -334 -23 -89 -23 -2121 0 -2210
40 -154 148 -267 305 -321 53 -18 125 -19 2240 -19 l2185 0 68 23 c130 45 238
153 284 284 17 50 18 112 18 1143 l0 1090 -23 57 c-51 126 -149 222 -277 270
l-60 23 -2155 1 c-1185 1 -2183 -2 -2217 -7z m330 -474 c33 -34 40 -72 19
-115 -24 -48 -53 -60 -155 -60 -127 0 -167 25 -167 105 0 27 8 44 29 66 29 29
31 29 139 29 104 0 111 -1 135 -25z m498 -4 c33 -33 38 -75 15 -120 -21 -40
-56 -51 -161 -51 -85 0 -96 2 -123 25 -36 30 -47 70 -32 111 21 54 44 64 163
64 107 0 109 0 138 -29z m484 13 c29 -19 48 -72 39 -108 -3 -14 -20 -37 -36
-51 -27 -23 -38 -25 -125 -25 -71 0 -102 4 -123 17 -57 33 -67 107 -21 154 29
28 32 29 136 29 80 0 112 -4 130 -16z m506 -13 c22 -22 29 -39 29 -68 0 -82
-45 -107 -185 -101 -92 3 -98 4 -121 31 -34 40 -33 101 3 139 26 27 29 28 136
28 107 0 109 -1 138 -29z m480 19 c24 -13 49 -61 49 -96 0 -16 -12 -38 -34
-60 l-34 -34 -102 0 -102 0 -34 34 c-22 22 -34 44 -34 60 0 33 24 82 47 95 23
14 219 14 244 1z m512 -18 c36 -38 37 -99 3 -139 -23 -27 -29 -28 -121 -31
-140 -6 -185 19 -185 101 0 29 7 46 29 68 29 28 31 29 138 29 107 0 110 -1
136 -28z m498 -1 c33 -33 38 -75 15 -120 -21 -40 -56 -51 -161 -51 -85 0 -96
2 -123 25 -36 30 -47 66 -32 111 19 55 40 64 163 64 107 0 109 -1 138 -29z
m492 3 c48 -48 41 -119 -15 -158 -28 -20 -193 -22 -233 -4 -59 27 -73 112 -26
159 29 29 31 29 139 29 104 0 110 -1 135 -26z m498 -3 c21 -22 29 -39 29 -66
0 -80 -40 -105 -167 -105 -102 0 -131 12 -155 60 -21 43 -14 81 19 115 24 24
31 25 135 25 108 0 110 0 139 -29z m-3990 -427 c70 -36 70 -141 -1 -177 -28
-15 -53 -17 -129 -15 -91 4 -94 5 -122 36 -45 50 -36 121 19 155 37 23 190 24
233 1z m520 -22 c39 -44 39 -90 0 -134 -28 -31 -31 -32 -122 -36 -76 -2 -101
0 -129 15 -72 37 -75 131 -6 175 26 16 46 18 129 16 97 -3 99 -3 128 -36z
m495 5 c34 -39 40 -73 20 -114 -21 -45 -66 -63 -156 -63 -112 0 -170 36 -170
106 0 35 31 81 64 95 11 5 65 8 119 6 94 -2 100 -3 123 -30z m467 22 c63 -32
76 -107 29 -160 -26 -29 -35 -32 -104 -37 -98 -6 -140 2 -171 33 -29 30 -36
58 -25 103 14 53 56 72 161 72 49 0 98 -5 110 -11z m521 -18 c32 -30 42 -80
24 -118 -20 -43 -70 -63 -158 -63 -88 0 -138 20 -158 63 -25 51 4 119 58 140
8 4 59 5 112 4 87 -2 99 -4 122 -26z m483 9 c55 -33 62 -108 16 -155 -31 -31
-73 -39 -171 -33 -69 5 -78 8 -104 37 -46 52 -34 126 27 159 11 6 61 12 110
12 72 0 96 -4 122 -20z m514 -18 c50 -56 33 -129 -37 -158 -43 -18 -165 -18
-209 0 -34 14 -65 59 -65 93 0 27 37 82 63 93 12 5 66 9 120 7 98 -2 99 -2
128 -35z m475 19 c71 -43 63 -146 -13 -177 -28 -12 -60 -15 -127 -12 -85 4
-90 6 -117 36 -35 40 -38 88 -8 126 30 38 51 45 149 45 67 1 92 -3 116 -18z
m489 7 c59 -27 72 -109 26 -160 -28 -31 -31 -32 -122 -36 -76 -2 -101 0 -129
15 -69 35 -72 134 -6 174 24 15 50 19 118 19 48 0 99 -5 113 -12z m-3944 -466
c26 -24 32 -36 32 -72 0 -36 -6 -48 -32 -72 -30 -27 -35 -28 -137 -28 -103 0
-106 1 -135 29 -23 23 -29 38 -29 71 0 33 6 48 29 71 29 28 32 29 135 29 102
0 107 -1 137 -28z m500 -1 c23 -23 29 -38 29 -71 0 -33 -6 -48 -29 -71 -29
-28 -32 -29 -135 -29 -102 0 -107 1 -138 29 -27 24 -33 36 -33 71 0 35 6 47
33 71 31 28 36 29 138 29 103 0 106 -1 135 -29z m491 0 c27 -24 33 -36 33 -71
0 -35 -6 -47 -33 -71 -31 -28 -36 -29 -138 -29 -98 0 -107 2 -129 24 -45 45
-45 107 0 152 22 22 31 24 129 24 102 0 107 -1 138 -29z m499 0 c23 -23 29
-38 29 -71 0 -33 -6 -48 -29 -71 -29 -28 -32 -29 -136 -29 -104 0 -107 1 -136
29 -23 23 -29 38 -29 71 0 33 6 48 29 71 29 28 32 29 136 29 104 0 107 -1 136
-29z m474 17 c29 -13 55 -55 55 -88 0 -33 -26 -75 -55 -88 -14 -7 -66 -12
-115 -12 -100 0 -135 11 -156 51 -26 51 -10 109 37 135 31 17 198 18 234 2z
m516 -17 c23 -23 29 -38 29 -71 0 -33 -6 -48 -29 -71 -29 -28 -32 -29 -136
-29 -104 0 -107 1 -136 29 -23 23 -29 38 -29 71 0 33 6 48 29 71 29 28 32 29
136 29 104 0 107 -1 136 -29z m494 5 c13 -13 27 -36 31 -50 9 -36 -3 -73 -31
-102 -22 -22 -31 -24 -129 -24 -102 0 -107 1 -138 29 -27 24 -33 36 -33 71 0
35 6 47 33 71 31 28 36 29 138 29 98 0 107 -2 129 -24z m497 -5 c27 -24 33
-36 33 -71 0 -35 -6 -47 -33 -71 -31 -28 -36 -29 -138 -29 -103 0 -106 1 -135
29 -23 23 -29 38 -29 71 0 33 6 48 29 71 29 28 32 29 135 29 102 0 107 -1 138
-29z m499 0 c23 -23 29 -38 29 -71 0 -33 -6 -48 -29 -71 -29 -28 -32 -29 -135
-29 -102 0 -107 1 -137 28 -26 24 -32 36 -32 72 0 36 6 48 32 72 30 27 35 28
137 28 103 0 106 -1 135 -29z m-3991 -429 c71 -35 71 -140 1 -176 -43 -23
-193 -22 -231 1 -55 32 -66 102 -25 152 29 34 42 38 145 40 54 1 85 -4 110
-17z m521 -20 c39 -44 39 -90 0 -134 -29 -32 -32 -33 -124 -36 -111 -4 -148 9
-174 63 -14 30 -15 38 -2 72 22 59 63 75 178 71 91 -4 94 -5 122 -36z m464 24
c41 -18 71 -71 61 -109 -3 -15 -17 -39 -30 -54 -24 -28 -26 -28 -136 -28
l-112 0 -29 33 c-50 55 -34 128 35 158 42 18 168 18 211 0z m526 -24 c48 -54
35 -129 -28 -161 -33 -17 -188 -14 -223 4 -73 38 -70 142 4 180 24 12 53 15
125 12 91 -3 94 -4 122 -35z m469 20 c65 -32 77 -113 24 -163 -24 -22 -33 -24
-134 -24 -101 0 -110 2 -134 24 -32 30 -42 80 -24 118 20 43 70 63 158 63 51
0 86 -6 110 -18z m495 3 c75 -36 78 -142 5 -180 -35 -18 -190 -21 -223 -4 -61
31 -76 105 -32 158 29 34 43 38 143 40 49 1 85 -4 107 -14z m489 1 c70 -29 87
-102 37 -158 l-29 -33 -112 0 c-110 0 -112 0 -136 28 -13 15 -27 39 -30 54
-10 37 20 91 59 108 42 18 168 19 211 1z m502 -1 c73 -30 79 -133 10 -176 -26
-17 -46 -19 -129 -17 -97 3 -99 3 -128 36 -37 42 -39 89 -4 131 14 16 36 32
48 34 54 10 170 6 203 -8z m525 -23 c32 -36 37 -77 15 -121 -21 -39 -56 -51
-154 -51 -103 0 -143 18 -161 73 -10 29 -9 42 3 71 22 53 60 67 175 63 91 -3
94 -4 122 -35z m-3965 -445 c34 -40 33 -101 -3 -139 -26 -27 -29 -28 -136 -28
-107 0 -109 1 -138 29 -32 33 -38 78 -15 120 24 43 52 51 164 49 100 -3 105
-4 128 -31z m473 18 c58 -29 66 -124 14 -165 -22 -17 -40 -20 -133 -20 -101 0
-109 1 -133 25 -13 14 -27 38 -30 53 -7 35 21 93 53 109 36 18 194 17 229 -2z
m2480 1 c57 -30 68 -110 22 -157 l-29 -29 -1101 0 -1100 0 -26 23 c-18 15 -28
36 -32 64 -5 39 -2 46 30 78 l35 35 1086 0 c921 0 1091 -2 1115 -14z m510 -12
c38 -32 49 -80 27 -122 -24 -46 -43 -52 -161 -52 -104 0 -107 1 -136 29 -32
33 -38 78 -15 120 22 40 54 50 158 51 89 0 99 -2 127 -26z m476 14 c59 -27 73
-112 26 -159 -29 -28 -31 -29 -138 -29 -107 0 -110 1 -136 28 -46 48 -31 139
27 162 32 13 191 12 221 -2z"/>
</g>
</svg>
